<svg width="137" height="67" viewBox="0 0 137 67" fill="none" xmlns="http://www.w3.org/2000/svg">
<path d="M107.694 46.7959L95.2845 29.4475H91.4856V66.1704H94.1449L107.694 46.7959Z" fill="white"/>
<path d="M93.0088 29.4475H8.04089C3.60007 29.4475 7.62939e-05 33.0475 7.62939e-05 37.4883V58.1207C7.62939e-05 62.5615 3.60007 66.1615 8.04089 66.1615H93.0088V29.4475Z" fill="white"/>
<path d="M13.5169 61.3799C11.4908 61.3799 9.95855 60.8101 8.92018 59.6704C7.8818 58.5054 7.36262 56.8465 7.36262 54.6938V53.1742H11.3135V54.9977C11.3135 56.7199 12.0353 57.581 13.4789 57.581C14.188 57.581 14.7199 57.3784 15.0744 56.9731C15.4543 56.5426 15.6443 55.8588 15.6443 54.9217C15.6443 53.8074 15.391 52.8323 14.8845 51.9966C14.378 51.1355 13.4409 50.1098 12.0733 48.9194C10.3511 47.3999 9.14811 46.0323 8.4643 44.8166C7.7805 43.5756 7.4386 42.1827 7.4386 40.6378C7.4386 38.5357 7.97045 36.9148 9.03414 35.7752C10.0978 34.6102 11.6427 34.0277 13.6688 34.0277C15.6696 34.0277 17.1765 34.6102 18.1895 35.7752C19.2279 36.9148 19.7471 38.561 19.7471 40.7138V41.8155H15.7962V40.4478C15.7962 39.5361 15.6189 38.8776 15.2644 38.4724C14.9098 38.0419 14.3906 37.8266 13.7068 37.8266C12.3139 37.8266 11.6174 38.675 11.6174 40.3719C11.6174 41.3343 11.8707 42.2333 12.3772 43.0691C12.909 43.9049 13.8588 44.9179 15.2264 46.1082C16.9739 47.6278 18.1769 49.0081 18.8354 50.2491C19.4938 51.49 19.8231 52.9463 19.8231 54.6178C19.8231 56.7959 19.2786 58.4674 18.1895 59.6324C17.1258 60.7974 15.5683 61.3799 13.5169 61.3799ZM25.8334 49.6792L20.7808 34.4076H25.2256L28.0747 44.1708H28.1507L30.9999 34.4076H35.0648L30.0122 49.6792V61H25.8334V49.6792ZM36.9473 34.4076H42.1898L46.2547 50.325H46.3306V34.4076H50.0536V61H45.7608L40.7462 41.5875H40.6702V61H36.9473V34.4076ZM56.4266 38.2065H52.0578V34.4076H64.9741V38.2065H60.6054V61H56.4266V38.2065ZM66.9974 34.4076H71.1762V45.2345H75.6589V34.4076H79.8377V61H75.6589V49.0334H71.1762V61H66.9974V34.4076ZM82.9498 34.4076H94.3466V38.2065H87.1287V45.2345H92.865V49.0334H87.1287V57.2011H94.3466V61H82.9498V34.4076Z" fill="black"/>
<path d="M97.9635 66L111.225 47.0598L98.5175 29.2276H110.394L116.904 39.3383L123.76 29.2276H135.186L122.721 46.6443L136.329 66H124.383L116.904 54.6082L109.355 66H97.9635Z" fill="#0CAD4B"/>
</svg>
