<svg width="16" height="16" viewBox="0 0 16 16" fill="none" xmlns="http://www.w3.org/2000/svg">
<g clip-path="url(#clip0_34_2)">
<path d="M15.2744 9.81436L15.2652 9.85137C14.2478 13.8471 10.1912 16.2742 6.18519 15.2753C2.16868 14.2737 -0.276517 10.2041 0.725578 6.18659L0.725609 6.18647C1.72683 2.16819 5.79624 -0.277099 9.81317 0.724532L9.8132 0.724539C13.8311 1.72618 16.2762 5.79628 15.2744 9.81436ZM9.93413 0.239451L9.93414 0.239387L9.93413 0.239451Z" fill="#F7931A" stroke="#4CBB17"/>
<path d="M11.5276 6.86022C11.6868 5.7956 10.8763 5.22332 9.76792 4.84156L10.1275 3.39943L9.2496 3.18068L8.89959 4.58484C8.6688 4.52728 8.4318 4.47305 8.19624 4.41928L8.54879 3.00585L7.67147 2.78711L7.31172 4.22877C7.12074 4.18529 6.93316 4.14231 6.75118 4.09703L6.75219 4.09249L5.5416 3.79019L5.30807 4.7278C5.30807 4.7278 5.95938 4.8771 5.94565 4.88629C6.30114 4.97502 6.36542 5.21034 6.35475 5.39686L5.94518 7.03979C5.96966 7.046 6.00141 7.055 6.03645 7.06907C6.00716 7.0618 5.97599 7.05386 5.94366 7.04612L5.36958 9.34762C5.32614 9.45562 5.21587 9.61771 4.96733 9.55616C4.97612 9.56891 4.32928 9.39693 4.32928 9.39693L3.89343 10.4018L5.03583 10.6866C5.24836 10.7399 5.45663 10.7957 5.66172 10.8481L5.29845 12.3068L6.1753 12.5255L6.53505 11.0823C6.7746 11.1473 7.00707 11.2073 7.23465 11.2639L6.87611 12.7003L7.75402 12.919L8.11725 11.4631C9.6142 11.7464 10.7398 11.6322 11.2136 10.2782C11.5953 9.18804 11.1946 8.55926 10.407 8.14922C10.9806 8.01694 11.4127 7.63967 11.5279 6.86034L11.5276 6.86014L11.5276 6.86022ZM9.52184 9.67276C9.25054 10.7629 7.41511 10.1736 6.82004 10.0258L7.3021 8.09334C7.89714 8.2419 9.80538 8.53588 9.52188 9.67276H9.52184ZM9.79333 6.84442C9.54585 7.83601 8.0182 7.33224 7.52265 7.20871L7.9597 5.45606C8.45526 5.57959 10.0511 5.81014 9.79341 6.84442H9.79333Z" fill="white"/>
</g>
<defs>
<clipPath id="clip0_34_2">
<rect width="16" height="16" fill="white"/>
</clipPath>
</defs>
</svg>
